<svg xmlns="http://www.w3.org/2000/svg" version="1.1" xmlns:xlink="http://www.w3.org/1999/xlink" width="2000" height="2000" viewBox="0 0 2000 2000"><rect width="2000" height="2000" x="0" y="0" id="background" stroke="transparent" fill="#ececec"></rect><svg xml:space="preserve" width="1500" height="1500" data-version="2" data-id="lg_F6Q2hFk9HFAfWVPwWN" viewBox="0 0 555 447" x="250" y="250">
    <g transform="matrix(1 0 0 1 277.5 322.6)">
        <filter id="a" width="140%" height="140%" x="-20%" y="-20%">
            <feGaussianBlur in="SourceAlpha"></feGaussianBlur>
            <feOffset result="oBlur"></feOffset>
            <feFlood flood-color="#000" flood-opacity="1"></feFlood>
            <feComposite in2="oBlur" operator="in"></feComposite>
            <feMerge>
                <feMergeNode></feMergeNode>
                <feMergeNode in="SourceGraphic"></feMergeNode>
            </feMerge>
        </filter>
        <g filter="url(#a)">
            <path fill="#000000" d="M-195.55-47.93v13.43h-60.26v21.05h49.37V-.86h-49.37v31.21h-16.09v-78.28Z"></path>
            <rect width="76.35" height="78.28" x="-38.175" y="-39.14" fill="none" rx="0" ry="0" transform="matrix(1 0 0 1 -233.225 -8.29)"></rect>
            <path fill="#000000" d="M-154.05 31.81q-11.37 0-20.03-3.63-8.65-3.63-13.49-10.59T-192.41.47q0-10.17 4.84-17.25 4.84-7.07 13.49-10.7 8.66-3.63 20.03-3.63 11.37 0 19.9 3.63t13.37 10.7q4.84 7.08 4.84 17.25 0 10.16-4.84 17.12-4.84 6.96-13.37 10.59t-19.9 3.63m0-12.1q6.29 0 11.31-2.24 5.02-2.24 7.93-6.54 2.9-4.29 2.9-10.46 0-6.17-2.9-10.59-2.91-4.42-7.87-6.72-4.96-2.29-11.37-2.29-6.29 0-11.37 2.29-5.09 2.3-8.05 6.66-2.97 4.36-2.97 10.65 0 6.17 2.91 10.46 2.9 4.3 7.98 6.54 5.09 2.24 11.5 2.24"></path>
            <rect width="76.47" height="62.92" x="-38.235" y="-31.46" fill="none" rx="0" ry="0" transform="matrix(1 0 0 1 -153.675 .85)"></rect>
            <path fill="#000000" d="M-104.32-29.78h15.73v60.13h-15.73Zm38.84 12.94q-6.77 0-11.74 2.61-4.96 2.6-7.98 6.35-3.03 3.75-4.24 7.26l-.12-6.66q.12-1.45.97-4.29.85-2.85 2.54-6.17 1.7-3.33 4.48-6.42 2.78-3.08 6.77-5.02 4-1.93 9.32-1.93Z"></path>
            <rect width="38.84" height="61.46" x="-19.42" y="-30.73" fill="none" rx="0" ry="0" transform="matrix(1 0 0 1 -84.4 .12)"></rect>
            <path fill="#000000" d="M-25.79 21.16q-9.8 0-17.24-2.97-7.44-2.96-11.56-8.77-4.11-5.81-4.11-14.03 0-8.11 3.99-14.04t11.44-9.2q7.44-3.26 17.48-3.26 2.78 0 5.38.36 2.61.36 5.15.97l30.37.12v11.86q-6.17.12-12.53-1.52-6.35-1.63-11.19-3.57l-.36-.84q4.11 1.93 7.74 4.78 3.63 2.84 5.87 6.53 2.24 3.69 2.24 8.53 0 7.87-3.99 13.49-4 5.63-11.32 8.59-7.32 2.97-17.36 2.97m20.21 34v-2.9q0-5.57-3.57-7.75-3.57-2.18-9.74-2.18h-18.76q-5.44 0-9.13-.84-3.69-.85-5.87-2.42-2.18-1.58-3.15-3.69-.97-2.12-.97-4.54 0-4.84 3.15-7.32 3.15-2.48 8.47-3.33 5.32-.85 11.74-.36l7.62 1.33q-7.62.24-11.31 1.27-3.69 1.03-3.69 4.05 0 1.82 1.45 2.85 1.45 1.02 4.11 1.02h19.72q8.11 0 13.86 1.76 5.75 1.75 8.77 5.93 3.03 4.17 3.03 11.43v5.69ZM-25.79 9.78q5.2 0 9.14-1.69 3.93-1.69 6.11-4.9 2.17-3.21 2.17-7.68 0-4.6-2.17-7.87-2.18-3.27-6.05-5.02-3.88-1.75-9.2-1.75-5.2 0-9.2 1.75-3.99 1.75-6.17 5.02-2.18 3.27-2.18 7.87 0 4.47 2.18 7.68t6.11 4.9q3.94 1.69 9.26 1.69"></path>
            <rect width="73.81" height="86.27" x="-36.905" y="-43.135" fill="none" rx="0" ry="0" transform="matrix(1 0 0 1 -21.295 12.525)"></rect>
            <path fill="#000000" d="M79.12 10.39h15.24q-.97 6.17-5.14 11.01t-11.31 7.62q-7.14 2.79-17.43 2.79-11.49 0-20.33-3.69-8.83-3.69-13.79-10.71Q21.4 10.39 21.4.47q0-9.92 4.84-17t13.49-10.83q8.65-3.75 20.27-3.75 11.86 0 19.72 3.75 7.87 3.75 11.68 11.31 3.81 7.56 3.2 19.3H37.25q.61 4.6 3.45 8.35 2.84 3.75 7.74 5.93 4.9 2.18 11.68 2.18 7.5 0 12.52-2.61 5.02-2.6 6.48-6.71M59.27-19.13q-8.71 0-14.15 3.81-5.45 3.81-7.02 9.37H79q-.61-6.05-5.75-9.62-5.14-3.56-13.98-3.56"></path>
            <rect width="73.499" height="62.92" x="-36.749" y="-31.46" fill="none" rx="0" ry="0" transform="matrix(1 0 0 1 58.65 .85)"></rect>
            <path fill="#000000" d="M184.75-47.93v13.43h-60.26v21.05h49.37V-.86h-49.37v31.21H108.4v-78.28Z"></path>
            <rect width="76.35" height="78.28" x="-38.175" y="-39.14" fill="none" rx="0" ry="0" transform="matrix(1 0 0 1 147.075 -8.29)"></rect>
            <path fill="#000000" d="M214.03-56.16v13.79h-18.27v-13.79Zm-17.06 26.38h15.73v60.13h-15.73Z"></path>
            <rect width="18.27" height="86.51" x="-9.135" y="-43.255" fill="none" rx="0" ry="0" transform="matrix(1 0 0 1 205.395 -12.405)"></rect>
            <path fill="#000000" d="M224.2-29.78h46.7v12.22h-46.7Zm15.48-16.46h15.73v76.59h-15.73Z"></path>
            <rect width="46.7" height="76.59" x="-23.35" y="-38.295" fill="none" rx="0" ry="0" transform="matrix(1 0 0 1 248.05 -7.445)"></rect>
        </g>
    </g>
    <path fill="#262626" d="M114.88 395.79v5.29H90.37v10.15h20.08v5.08H90.37v14.47h-6.16v-34.99Z"></path>
    <rect width="30.67" height="34.99" x="-15.335" y="-17.495" fill="none" rx="0" ry="0" transform="matrix(1 0 0 1 100.045 413.785)"></rect>
    <path fill="#262626" d="M132.11 431.38q-4.48 0-8.05-1.62-3.56-1.62-5.61-4.76-2.06-3.13-2.06-7.61 0-4.43 2.06-7.59 2.05-3.16 5.61-4.83 3.57-1.67 8.05-1.67t7.99 1.67q3.51 1.67 5.53 4.83 2.03 3.16 2.03 7.59 0 4.48-2.03 7.61-2.02 3.14-5.53 4.76-3.51 1.62-7.99 1.62m0-4.92q2.59 0 4.75-1.02 2.16-1.03 3.43-3.08t1.27-4.97q0-2.92-1.27-4.97t-3.4-3.16q-2.14-1.1-4.78-1.1-2.65 0-4.81 1.08-2.16 1.08-3.48 3.13-1.32 2.05-1.32 5.02 0 2.92 1.29 4.97 1.3 2.05 3.48 3.08 2.19 1.02 4.84 1.02"></path>
    <rect width="31.27" height="28.08" x="-15.635" y="-14.04" fill="none" rx="0" ry="0" transform="matrix(1 0 0 1 132.525 417.84)"></rect>
    <path fill="#262626" d="M153.01 403.89H159v26.89h-5.99Zm15.71 5.13q-2.92 0-5 1.24-2.07 1.24-3.32 3.03-1.24 1.78-1.72 3.45l-.06-3.02q.06-.6.38-1.81.32-1.22 1-2.67.67-1.46 1.83-2.84 1.17-1.38 2.87-2.24 1.7-.86 4.02-.86Z"></path>
    <rect width="15.71" height="27.48" x="-7.855" y="-13.74" fill="none" rx="0" ry="0" transform="matrix(1 0 0 1 161.365 417.54)"></rect>
    <path fill="#262626" d="M185.24 426.62q-3.78 0-6.83-1.35-3.05-1.35-4.8-3.94-1.76-2.59-1.76-6.21t1.7-6.26q1.7-2.65 4.75-4.11 3.06-1.45 6.94-1.45 1.14 0 2.19.16t2.03.43l12.58.05v5.03q-2.59.05-5.21-.73-2.62-.79-4.62-1.65l-.16-.32q1.83.91 3.32 2.24 1.48 1.32 2.35 2.99.86 1.68.86 3.78 0 3.57-1.7 6.11-1.7 2.53-4.7 3.88-2.99 1.35-6.94 1.35m8.64 15.12v-1.24q0-2.64-1.56-3.72-1.57-1.08-4.38-1.08h-7.29q-2.16 0-3.7-.35-1.53-.36-2.45-1.03-.92-.68-1.35-1.57-.43-.89-.43-1.97 0-2.16 1.32-3.24t3.51-1.4q2.19-.33 4.62-.11l3.07.59q-3.18.11-4.83.57-1.65.46-1.65 1.81 0 .81.65 1.3.65.48 1.84.48h7.67q3.29 0 5.77.79 2.49.78 3.86 2.64 1.38 1.86 1.38 5.1v2.43Zm-8.64-19.81q2.16 0 3.84-.81 1.67-.81 2.64-2.33.98-1.51.98-3.67t-.98-3.72q-.97-1.57-2.64-2.38-1.68-.81-3.84-.81-2.1 0-3.8.81-1.7.81-2.68 2.35-.97 1.54-.97 3.75 0 2.16.97 3.67.98 1.52 2.65 2.33t3.83.81"></path>
    <rect width="30.19" height="38.44" x="-15.095" y="-19.22" fill="none" rx="0" ry="0" transform="matrix(1 0 0 1 187.445 423.02)"></rect>
    <path fill="#262626" d="M228.98 421.93h5.78q-.43 2.75-2.13 4.88-1.7 2.14-4.62 3.35-2.91 1.22-6.96 1.22-4.59 0-8.21-1.7-3.62-1.71-5.67-4.84t-2.05-7.45q0-4.27 1.99-7.45 2-3.19 5.54-4.92 3.54-1.72 8.18-1.72 4.81 0 8.02 1.7t4.78 5.07q1.56 3.38 1.29 8.51h-23.7q.27 2.27 1.48 4.08 1.22 1.8 3.32 2.8 2.11 1 4.92 1 3.13 0 5.26-1.24 2.14-1.24 2.78-3.29m-8.31-13.77q-3.67 0-6.05 1.81-2.38 1.8-3.08 4.61h17.34q-.22-3.02-2.43-4.72-2.22-1.7-5.78-1.7"></path>
    <rect width="29.935" height="28.08" x="-14.968" y="-14.04" fill="none" rx="0" ry="0" transform="matrix(1 0 0 1 220.588 417.84)"></rect>
    <path fill="#262626" d="M250.26 403.89h6.43l10.85 25.81-5.18 1.08Zm29.97 0-17.28 37.69h-6.32l7.4-14.74 9.77-22.95Z"></path>
    <rect width="29.97" height="37.69" x="-14.985" y="-18.845" fill="none" rx="0" ry="0" transform="matrix(1 0 0 1 265.745 423.235)"></rect>
    <path fill="#262626" d="M297.78 431.38q-4.48 0-8.05-1.62-3.56-1.62-5.61-4.76-2.05-3.13-2.05-7.61 0-4.43 2.05-7.59t5.61-4.83q3.57-1.67 8.05-1.67t7.99 1.67q3.51 1.67 5.54 4.83 2.02 3.16 2.02 7.59 0 4.48-2.02 7.61-2.03 3.14-5.54 4.76-3.51 1.62-7.99 1.62m0-4.92q2.59 0 4.75-1.02 2.16-1.03 3.43-3.08t1.27-4.97q0-2.92-1.27-4.97t-3.4-3.16q-2.13-1.1-4.78-1.1-2.65 0-4.81 1.08-2.16 1.08-3.48 3.13-1.32 2.05-1.32 5.02 0 2.92 1.29 4.97 1.3 2.05 3.49 3.08 2.18 1.02 4.83 1.02"></path>
    <rect width="31.26" height="28.08" x="-15.63" y="-14.04" fill="none" rx="0" ry="0" transform="matrix(1 0 0 1 298.2 417.84)"></rect>
    <path fill="#262626" d="M346.7 430.78h-5.99v-26.89h5.99Zm-5.67-12.8.06 1.73q-.11.7-.46 2.11-.35 1.4-1.14 3.05-.78 1.65-2.05 3.13-1.27 1.49-3.16 2.43-1.89.95-4.59.95-1.94 0-3.91-.52-1.97-.51-3.57-1.7-1.59-1.19-2.56-3.24-.97-2.05-.97-5.18v-16.85h5.99v15.71q0 2.54.84 3.97.84 1.43 2.35 2.03 1.51.59 3.51.59 2.86 0 4.86-1.29 2-1.3 3.21-3.22 1.22-1.91 1.59-3.7"></path>
    <rect width="28.02" height="27.49" x="-14.01" y="-13.745" fill="none" rx="0" ry="0" transform="matrix(1 0 0 1 333.19 418.135)"></rect>
    <path fill="#262626" d="M353.35 403.89h5.99v26.89h-5.99Zm15.71 5.13q-2.92 0-5 1.24-2.07 1.24-3.32 3.03-1.24 1.78-1.72 3.45l-.06-3.02q.06-.6.38-1.81.32-1.22 1-2.67.67-1.46 1.83-2.84 1.17-1.38 2.87-2.24 1.7-.86 4.02-.86Z"></path>
    <rect width="15.71" height="27.48" x="-7.855" y="-13.74" fill="none" rx="0" ry="0" transform="matrix(1 0 0 1 361.705 417.54)"></rect>
    <path fill="#262626" d="M372.41 421.93h5.56q.43 2.05 2.21 3.32 1.79 1.27 4.81 1.27 1.94 0 3.05-.44 1.11-.43 1.57-1.18.46-.76.46-1.73 0-1.19-.68-1.84-.67-.65-1.97-1.08-1.3-.43-3.24-.75-2-.49-3.94-1.08-1.95-.6-3.51-1.49-1.57-.89-2.46-2.27-.89-1.37-.89-3.37 0-1.84.84-3.32.83-1.49 2.35-2.51 1.51-1.03 3.56-1.6 2.05-.56 4.48-.56 3.51 0 5.86 1.13 2.35 1.13 3.56 3.19 1.22 2.05 1.22 4.69h-5.29q-.43-2.16-1.68-3.13-1.24-.97-3.72-.97-2.49 0-3.78.86-1.3.87-1.3 2.38 0 1.13.84 1.81.84.67 2.4 1.16 1.57.49 3.67.97 1.95.54 3.68 1.11 1.72.57 3.1 1.4 1.38.84 2.19 2.19t.81 3.35q0 2.48-1.33 4.26-1.32 1.79-3.8 2.73-2.49.95-6 .95-3.07 0-5.32-.71-2.24-.7-3.72-1.83-1.49-1.14-2.3-2.43-.81-1.3-1.1-2.49-.3-1.18-.19-1.99"></path>
    <rect width="23.827" height="28.08" x="-11.914" y="-14.04" fill="none" rx="0" ry="0" transform="matrix(1 0 0 1 384.756 417.84)"></rect>
    <path fill="#262626" d="M424.09 421.93h5.77q-.43 2.75-2.13 4.88-1.7 2.14-4.62 3.35-2.91 1.22-6.96 1.22-4.59 0-8.21-1.7-3.62-1.71-5.67-4.84t-2.05-7.45q0-4.27 2-7.45 1.99-3.19 5.53-4.92 3.54-1.72 8.18-1.72 4.81 0 8.02 1.7t4.78 5.07q1.57 3.38 1.3 8.51h-23.71q.27 2.27 1.48 4.08 1.22 1.8 3.33 2.8 2.1 1 4.91 1 3.13 0 5.26-1.24 2.14-1.24 2.79-3.29m-8.32-13.77q-3.67 0-6.05 1.81-2.37 1.8-3.08 4.61h17.34q-.22-3.02-2.43-4.72-2.22-1.7-5.78-1.7"></path>
    <rect width="29.945" height="28.08" x="-14.973" y="-14.04" fill="none" rx="0" ry="0" transform="matrix(1 0 0 1 415.692 417.84)"></rect>
    <path fill="#262626" d="M435.91 393.09h6v37.69h-6Z"></path>
    <rect width="6" height="37.69" x="-3" y="-18.845" fill="none" rx="0" ry="0" transform="matrix(1 0 0 1 439.41 412.435)"></rect>
    <path fill="#262626" d="M446.23 404.21h19.49v4.86h-19.49Zm15.49-11.12h4.43v5.18h-3.35q-1.51-.05-2.62.33-1.1.38-1.72 1.4-.62 1.03-.62 2.92v27.86h-6.05v-28.4q0-3.24 1.19-5.29 1.18-2.06 3.42-3.03 2.25-.97 5.32-.97"></path>
    <rect width="19.92" height="37.69" x="-9.96" y="-18.845" fill="none" rx="0" ry="0" transform="matrix(1 0 0 1 456.69 412.435)"></rect>
    <g transform="matrix(1 0 0 1 202.125 106.73)">
        <filter id="b" width="140%" height="140%" x="-20%" y="-20%">
            <feGaussianBlur in="SourceAlpha"></feGaussianBlur>
            <feOffset result="oBlur"></feOffset>
            <feFlood flood-color="#000" flood-opacity="1"></feFlood>
            <feComposite in2="oBlur" operator="in"></feComposite>
            <feMerge>
                <feMergeNode></feMergeNode>
                <feMergeNode in="SourceGraphic"></feMergeNode>
            </feMerge>
        </filter>
        <g filter="url(#b)">
            <path fill="#000000" d="M-64.345 100.47q3.84-13.15 7.4-30 3.56-16.86 6.71-34.39 3.16-17.54 5.9-32.61t4.38-24.93q3.01-18.36 5.89-37.13 2.88-18.77 5.62-38.22l91.79-4.66-7.95 33.7h-43.02L3.885-19q4.38-.27 8.36-.27h26.44q2.46 0 4.38-.27-.27 3.83-.82 7.53-.55 3.7-1.1 7.54l-2.46 14.79q-5.76 0-16.58-.41-10.82-.41-22.88-.68l-12.6 80.83q-4.66.82-9.18 1.64t-9.18 1.92q-7.67 1.37-16.71 3.29-9.05 1.91-15.9 3.56"></path>
            <rect width="127.69" height="201.94" x="-63.845" y="-100.97" fill="none" rx="0" ry="0"></rect>
        </g>
    </g>
    <g transform="matrix(1 0 0 1 344.915 105.73)">
        <filter id="c" width="140%" height="140%" x="-20%" y="-20%">
            <feGaussianBlur in="SourceAlpha"></feGaussianBlur>
            <feOffset result="oBlur"></feOffset>
            <feFlood flood-color="#000" flood-opacity="1"></feFlood>
            <feComposite in2="oBlur" operator="in"></feComposite>
            <feMerge>
                <feMergeNode></feMergeNode>
                <feMergeNode in="SourceGraphic"></feMergeNode>
            </feMerge>
        </filter>
        <g filter="url(#c)">
            <path fill="#262626" d="M64.34 100.47q-3.83-13.15-7.4-30-3.56-16.86-6.71-34.39-3.15-17.54-5.89-32.61-2.74-15.07-4.38-24.93-3.02-18.36-5.9-37.13-2.87-18.77-5.61-38.22l-91.79-4.66 7.94 33.7h43.02L-3.88-19q-4.39-.27-8.36-.27h-26.44q-2.47 0-4.39-.27.28 3.83.83 7.53.54 3.7 1.09 7.54l2.47 14.79q5.75 0 16.57-.41Q-11.28 9.5.77 9.23l12.61 80.83q4.66.82 9.18 1.64t9.18 1.92q7.67 1.37 16.71 3.29 9.04 1.91 15.89 3.56"></path>
            <rect width="127.68" height="201.94" x="-63.84" y="-100.97" fill="none" rx="0" ry="0" transform="matrix(-1 0 0 1 0 0)"></rect>
        </g>
    </g>
</svg></svg>