<svg xmlns="http://www.w3.org/2000/svg" version="1.1" xmlns:xlink="http://www.w3.org/1999/xlink" width="2000" height="2000" viewBox="0 0 2000 2000"><svg xml:space="preserve" width="1500" height="1500" data-version="2" data-id="lg_xMAsCa6bopAwxqqfGF" viewBox="0 0 318 238" x="250" y="250">
    <g transform="matrix(1 0 0 1 76.31 119.5)">
        <filter id="a" width="140%" height="140%" x="-20%" y="-20%">
            <feGaussianBlur in="SourceAlpha"></feGaussianBlur>
            <feOffset result="oBlur"></feOffset>
            <feFlood flood-color="#000" flood-opacity="1"></feFlood>
            <feComposite in2="oBlur" operator="in"></feComposite>
            <feMerge>
                <feMergeNode></feMergeNode>
                <feMergeNode in="SourceGraphic"></feMergeNode>
            </feMerge>
        </filter>
        <g filter="url(#a)">
            <path fill="#000000" d="M-73.43 114.84q4.38-15.03 8.45-34.27 4.07-19.25 7.67-39.29 3.6-20.03 6.73-37.24 3.13-17.22 5.01-28.49 3.44-20.97 6.73-42.41 3.28-21.44 6.41-43.66l104.86-5.32-9.08 38.5H14.21l-9.7 55.71q5.01-.31 9.54-.31h30.21q2.82 0 5.01-.32-.32 4.39-.94 8.61-.63 4.23-1.25 8.61l-2.82 16.9q-6.57 0-18.94-.47-12.36-.47-26.13-.78l-14.4 92.33q-5.32.94-10.49 1.88-5.16.94-10.48 2.19-8.77 1.57-19.09 3.76-10.33 2.19-18.16 4.07"></path>
            <rect width="145.86" height="230.68" x="-72.93" y="-115.34" fill="none" rx="0" ry="0"></rect>
        </g>
    </g>
    <g transform="matrix(1 0 0 1 241.69 118.5)">
        <filter id="b" width="140%" height="140%" x="-20%" y="-20%">
            <feGaussianBlur in="SourceAlpha"></feGaussianBlur>
            <feOffset result="oBlur"></feOffset>
            <feFlood flood-color="#000" flood-opacity="1"></feFlood>
            <feComposite in2="oBlur" operator="in"></feComposite>
            <feMerge>
                <feMergeNode></feMergeNode>
                <feMergeNode in="SourceGraphic"></feMergeNode>
            </feMerge>
        </filter>
        <g filter="url(#b)">
            <path fill="#262626" d="M73.43 114.84q-4.38-15.03-8.45-34.27-4.07-19.25-7.67-39.29-3.6-20.03-6.73-37.24-3.13-17.22-5.01-28.49-3.44-20.97-6.73-42.41-3.29-21.44-6.42-43.66l-104.85-5.32 9.08 38.5h49.14l9.7 55.71q-5.01-.31-9.55-.31h-30.2q-2.82 0-5.01-.32.31 4.39.94 8.61.63 4.23 1.25 8.61l2.82 16.9q6.57 0 18.94-.47 12.36-.47 26.13-.78l14.4 92.33q5.32.94 10.48 1.88 5.17.94 10.49 2.19 8.76 1.57 19.09 3.76 10.33 2.19 18.16 4.07"></path>
            <rect width="145.86" height="230.68" x="-72.93" y="-115.34" fill="none" rx="0" ry="0" transform="matrix(-1 0 0 1 0 0)"></rect>
        </g>
    </g>
</svg></svg>